<svg width="97" height="32" viewBox="0 0 97 32" fill="none" xmlns="http://www.w3.org/2000/svg">
<g clip-path="url(#clip0_190_2372)">
<path d="M-0.101562 0.287087H6.45381C10.102 0.287087 12.0077 2.08948 12.0077 4.30213C12.0077 5.83102 11.1064 6.8676 9.85596 7.41734V7.45563C11.4555 8.00538 12.3568 9.217 12.3568 10.765C12.3568 12.9777 10.5742 14.9168 6.72277 14.9168H-0.101562V0.287087ZM6.25065 6.08538C7.33797 6.08538 7.82726 5.55751 7.82726 4.96948C7.82726 4.38145 7.3351 3.83444 6.25065 3.83444H4.32496V6.08538H6.25065ZM6.31074 11.3722C7.45814 11.3722 8.01038 10.8444 8.01038 10.1579C8.01038 9.47136 7.43811 8.9435 6.33077 8.9435H4.3221V11.3722H6.31074ZM13.2982 8.96264V0.287087H17.7648V8.92435C17.7648 10.549 18.606 11.4105 20.0395 11.4105C21.4731 11.4105 22.3744 10.549 22.3744 8.90247V0.284352H26.861V8.95991C26.861 12.6413 24.2801 15.2861 20.0367 15.2861C15.7933 15.2861 13.2953 12.6413 13.2953 8.95991L13.2982 8.96264ZM38.2349 0.992728V4.75341C37.2706 4.10794 35.6339 3.65666 34.3005 3.65666C33.0902 3.65666 32.4778 4.02863 32.4778 4.5182C32.4778 5.00777 33.1531 5.26213 34.3635 5.67239C36.4122 6.35888 39.1992 7.27786 39.1992 10.3931C39.1992 13.1746 37.0074 15.2314 33.156 15.2314C31.1673 15.2314 29.3447 14.6844 28.2173 13.9596V10.0047C29.3246 10.8662 31.0043 11.5527 32.6238 11.5527C33.9972 11.5527 34.6325 11.0632 34.6325 10.5134C34.6325 9.80777 33.5881 9.49598 32.3376 9.06384C30.6981 8.49495 28.0971 7.47752 28.0971 4.63854C28.0971 2.07307 30.2088 -0.0219727 33.9772 -0.0219727C35.6368 -0.0219727 37.1333 0.388284 38.2378 0.995463H38.2349V0.992728ZM40.3437 0.287087H44.8103V14.9168H40.3437V0.287087ZM60.6908 14.9168H56.4303L50.9193 7.06179H50.8993V14.9168H46.6587V0.287087H50.9193L56.4303 8.00264H56.4503V0.287087H60.6908V14.9168ZM62.5335 0.287087H73.1063V4.08606H67.0001V5.84743H72.4911V9.29358H67.0001V11.1151H73.1063V14.9141H62.5335V0.284352V0.287087ZM84.3142 0.992728V4.75341C83.3499 4.10794 81.7132 3.65666 80.3798 3.65666C79.1723 3.65666 78.5571 4.02863 78.5571 4.5182C78.5571 5.00777 79.2324 5.26213 80.4428 5.67239C82.4915 6.35888 85.2785 7.27786 85.2785 10.3931C85.2785 13.1746 83.0867 15.2314 79.2353 15.2314C77.2466 15.2314 75.424 14.6844 74.2966 13.9596V10.0047C75.4039 10.8662 77.0835 11.5527 78.7031 11.5527C80.0765 11.5527 80.7117 11.0632 80.7117 10.5134C80.7117 9.80777 79.6673 9.49598 78.4169 9.06384C76.7774 8.49495 74.1764 7.47752 74.1764 4.63854C74.1764 2.07307 76.2881 -0.0219727 80.0565 -0.0219727C81.7161 -0.0219727 83.2126 0.388284 84.3171 0.995463L84.3142 0.992728ZM96.1373 0.992728V4.75341C95.173 4.10794 93.5363 3.65666 92.203 3.65666C90.9955 3.65666 90.3803 4.02863 90.3803 4.5182C90.3803 5.00777 91.0555 5.26213 92.2659 5.67239C94.3146 6.35888 97.1016 7.27786 97.1016 10.3931C97.1016 13.1746 94.9098 15.2314 91.0584 15.2314C89.0698 15.2314 87.2471 14.6844 86.1197 13.9596V10.0047C87.2271 10.8662 88.9067 11.5527 90.5262 11.5527C91.8997 11.5527 92.5349 11.0632 92.5349 10.5134C92.5349 9.80777 91.4905 9.49598 90.2401 9.06384C88.6005 8.49495 85.9995 7.47752 85.9995 4.63854C85.9995 2.07307 88.1112 -0.0219727 91.8796 -0.0219727C93.5392 -0.0219727 95.0357 0.388284 96.1402 0.995463L96.1373 0.992728ZM9.70431 31.658H14.1709V17.0283H9.70431V31.658ZM30.0514 17.0283H25.8109V24.7438H25.7909L20.2799 17.0283H16.0193V31.658H20.2599V23.803H20.2799L25.7909 31.658H30.0514V17.0283ZM37.242 16.7138C33.4707 16.7138 31.3619 18.8088 31.3619 21.3743C31.3619 24.2132 33.9629 25.2334 35.6025 25.7996C36.8529 26.2317 37.8973 26.5435 37.8973 27.2491C37.8973 27.7989 37.262 28.2885 35.8886 28.2885C34.2691 28.2885 32.5894 27.602 31.4821 26.7404V30.6953C32.6095 31.4201 34.4322 31.9671 36.4208 31.9671C40.2722 31.9671 42.464 29.9103 42.464 27.1288C42.464 24.0136 39.677 23.0946 37.6283 22.4081C36.4208 21.9979 35.7427 21.7626 35.7427 21.2512C35.7427 20.7397 36.3578 20.3897 37.5653 20.3897C38.8959 20.3897 40.5354 20.8409 41.4997 21.4864V17.7257C40.3924 17.1185 38.8987 16.7083 37.2391 16.7083V16.7138H37.242ZM43.5084 31.658H47.975V17.0283H43.5084V31.658ZM54.2843 27.7989H55.1455C57.4604 27.7989 58.9568 26.5462 58.9568 24.3527C58.9568 22.1592 57.4604 20.8874 55.1455 20.8874H54.2843V27.8016V27.7989ZM63.4635 24.3527C63.4635 28.7589 59.9812 31.658 54.9796 31.658H49.8177V17.0283H54.9796C59.9784 17.0283 63.4635 19.9466 63.4635 24.3527ZM64.6738 31.658H75.2465V27.8591H69.1404V26.0375H74.6314V22.5914H69.1404V20.83H75.2465V17.031H64.6738V31.6608V31.658ZM82.2769 23.9425C83.4043 23.9425 84.2856 23.4338 84.2856 22.4136C84.2856 21.3934 83.4043 20.8847 82.2569 20.8847H81.3155V23.9397H82.2798L82.2769 23.9425ZM89.5905 31.658H84.3256L81.4156 27.1343H81.3126V31.658H76.8461V17.0283H82.2969C86.1283 17.0283 88.7922 18.6529 88.7922 22.1209C88.7922 23.4912 88.157 25.4905 85.6161 26.5079L89.5905 31.658Z" fill="black"/>
</g>
<defs>
<clipPath id="clip0_190_2372">
<rect width="97" height="32" fill="white"/>
</clipPath>
</defs>
</svg>
