<svg width="164" height="20" viewBox="0 0 164 20" fill="none" xmlns="http://www.w3.org/2000/svg">
<g clip-path="url(#clip0_190_2378)">
<path d="M4.51694 0.44344V7.77677H12.5849V0.44344H16.9663V19.5601H12.5849V11.3134H4.51694V19.5601H0.135498V0.44344H4.51694ZM26.1427 12.1101V19.5601H30.5276V12.2268L37.925 0.44344H33.0397L28.4081 8.00011L23.7452 0.44344H18.8357L26.1427 12.1101ZM39.7908 0.44344V19.5601H44.1723V12.7068H48.7761C49.8624 12.7329 50.9436 12.5552 51.9588 12.1834C52.767 11.8794 53.4954 11.4082 54.0922 10.8034C54.6392 10.2409 55.0497 9.56935 55.2944 8.83677C55.795 7.36154 55.795 5.77201 55.2944 4.29677C55.0494 3.56604 54.6402 2.89582 54.0957 2.33344C53.4973 1.73037 52.7694 1.25947 51.9623 0.95344C50.9468 0.582858 49.8656 0.406215 48.7796 0.43344L39.7908 0.44344ZM44.1723 9.44344V3.71011H47.5774C48.0637 3.70775 48.5494 3.74342 49.0297 3.81677C49.4625 3.87771 49.8789 4.01804 50.2563 4.23011C50.6163 4.443 50.9102 4.74458 51.1075 5.10344C51.3394 5.56045 51.4493 6.0656 51.4272 6.57344C51.4493 7.08235 51.3394 7.58857 51.1075 8.04677C50.9101 8.4047 50.6161 8.70517 50.2563 8.91677C49.8802 9.12953 49.4649 9.27098 49.0332 9.33344C48.5527 9.40515 48.0671 9.44081 47.5808 9.44011L44.1723 9.44344ZM57.539 0.44344V19.5601H72.6638V16.0268H61.9239V11.3334H71.5763V8.06677H61.9239V3.97677H72.4449V0.44344H57.539ZM74.5366 0.44344V19.5601H84.189C85.0701 19.5576 85.9472 19.4456 86.7984 19.2268C87.609 19.0268 88.3753 18.6881 89.0603 18.2268C89.7223 17.7803 90.2632 17.1883 90.6378 16.5001C91.0438 15.7243 91.2443 14.8646 91.2215 13.9968C91.2542 12.9095 90.9376 11.8389 90.3146 10.9301C89.6442 10.0472 88.667 9.42303 87.5593 9.17011C88.3685 8.82642 89.0669 8.28079 89.5815 7.59011C90.065 6.87527 90.3076 6.03506 90.2764 5.18344C90.3018 4.4099 90.1451 3.64082 89.8178 2.93344C89.5275 2.34469 89.0789 1.84075 88.5183 1.47344C87.9116 1.08688 87.2316 0.818458 86.5169 0.68344C85.6629 0.516596 84.793 0.436156 83.9214 0.44344H74.5366ZM78.9146 8.18011V3.71011H83.018C83.3966 3.70857 83.7746 3.7398 84.1473 3.80344C84.4865 3.85749 84.8127 3.97045 85.1097 4.13677C85.3915 4.2973 85.6231 4.52756 85.7803 4.80344C85.9612 5.14209 86.0474 5.51995 86.0305 5.90011C86.0305 6.70455 85.7792 7.28566 85.2765 7.64344C84.7132 8.01894 84.0368 8.20634 83.3516 8.17677L78.9146 8.18011ZM78.9146 16.2934V11.0434H83.6886C84.5038 11.0029 85.31 11.222 85.9819 11.6668C86.554 12.0868 86.8412 12.7868 86.8435 13.7668C86.8605 14.1919 86.7711 14.6148 86.583 15.0001C86.4155 15.3094 86.1693 15.5731 85.8672 15.7668C85.5485 15.9608 85.1951 16.0965 84.8248 16.1668C84.4213 16.2465 84.0103 16.2867 83.5983 16.2868L78.9146 16.2934ZM93.0908 0.44344V19.5601H108.219V16.0268H97.4792V11.3334H107.135V8.06677H97.4792V3.97677H108V0.44344H93.0908ZM117.621 0.44344L110.092 19.5601H114.498L116.051 15.3034H123.504L125.012 19.5601H129.56L122.121 0.44344H117.621ZM117.204 12.1701L119.8 5.17011H119.873L122.385 12.1701H117.204ZM134.174 14.8601C133.923 14.3506 133.803 13.7902 133.827 13.2268H129.57C129.526 14.2822 129.757 15.3315 130.241 16.2801C130.689 17.1155 131.334 17.8392 132.124 18.3934C132.948 18.9612 133.875 19.375 134.859 19.6134C135.903 19.8735 136.977 20.0034 138.055 20.0001C139.267 20.0198 140.476 19.867 141.641 19.5468C142.584 19.2873 143.465 18.8549 144.237 18.2734C144.915 17.7559 145.456 17.0909 145.814 16.3334C146.172 15.5673 146.353 14.7362 146.346 13.8968C146.387 12.9695 146.139 12.0515 145.633 11.2601C145.193 10.6071 144.618 10.0469 143.945 9.61344C143.339 9.22308 142.676 8.92092 141.978 8.71677C141.314 8.53011 140.8 8.40011 140.428 8.32677C139.181 8.02677 138.17 7.77344 137.399 7.58011C136.779 7.43726 136.173 7.2432 135.588 7.00011C135.234 6.86343 134.927 6.63206 134.706 6.33344C134.547 6.05506 134.47 5.74051 134.483 5.42344C134.472 5.07074 134.57 4.72272 134.765 4.42344C134.946 4.15732 135.182 3.93027 135.46 3.75677C135.755 3.57487 136.082 3.44715 136.426 3.38011C136.769 3.31103 137.118 3.2753 137.468 3.27344C137.969 3.2709 138.47 3.31556 138.962 3.40677C139.392 3.48759 139.804 3.64109 140.178 3.86011C140.549 4.07463 140.856 4.37785 141.068 4.74011C141.3 5.18008 141.43 5.66366 141.447 6.15677H145.689C145.715 5.17671 145.484 4.20606 145.018 3.33344C144.594 2.56998 143.987 1.91418 143.246 1.42011C142.474 0.907041 141.607 0.538373 140.693 0.33344C139.71 0.107949 138.704 -0.0039579 137.694 0.000106864C136.79 -0.00214199 135.889 0.109934 135.015 0.33344C134.155 0.551829 133.342 0.915266 132.614 1.40677C131.912 1.88202 131.326 2.49859 130.898 3.21344C130.445 3.99407 130.218 4.8769 130.241 5.77011C130.218 6.54487 130.395 7.31308 130.755 8.00677C131.088 8.60661 131.55 9.13159 132.11 9.54677C132.69 9.96615 133.331 10.303 134.011 10.5468C134.721 10.8105 135.448 11.0331 136.186 11.2134C136.913 11.4112 137.629 11.589 138.333 11.7468C138.981 11.8988 139.616 12.0948 140.234 12.3334C140.735 12.5131 141.195 12.7861 141.585 13.1368C141.758 13.2975 141.893 13.4906 141.983 13.704C142.074 13.9175 142.117 14.1465 142.11 14.3768C142.127 14.8062 141.989 15.228 141.718 15.5701C141.449 15.8866 141.108 16.1388 140.72 16.3068C140.328 16.4861 139.91 16.6075 139.48 16.6668C139.065 16.7273 138.646 16.7585 138.226 16.7601C137.661 16.7635 137.098 16.6962 136.551 16.5601C136.045 16.4427 135.566 16.2346 135.14 15.9468C134.735 15.6624 134.405 15.2901 134.178 14.8601M153.507 3.97677V19.5601H157.892V3.97677H163.864V0.44344H147.534V3.97677H153.507Z" fill="black"/>
</g>
<defs>
<clipPath id="clip0_190_2378">
<rect width="164" height="20" fill="white"/>
</clipPath>
</defs>
</svg>
