<svg width="118" height="24" viewBox="0 0 118 24" fill="none" xmlns="http://www.w3.org/2000/svg">
<g clip-path="url(#clip0_190_2370)">
<path fill-rule="evenodd" clip-rule="evenodd" d="M27.5153 6.85721V16.28C27.5153 19.0232 28.3213 20.3786 30.449 20.3786C32.9313 20.3786 33.9953 18.9907 33.9953 15.6028V6.85721H38.5562V23.5462H34.2202L34.2107 21.056C33.0689 23.0734 30.9651 24.0001 29.0305 24.0001C24.1748 24.0001 22.9544 21.2516 22.9544 17.1193V6.85721H27.5153ZM109.342 6.36891C114.579 6.36891 117.945 9.837 117.945 15.2009C117.945 20.5322 114.579 24.0001 109.342 24.0001C104.137 24.0001 100.771 20.5322 100.771 15.2009C100.771 9.837 104.137 6.36891 109.342 6.36891ZM78.4315 6.26677C84.0443 6.26677 86.7549 11.0195 86.4363 16.1699H74.5401C74.6682 19.0757 76.0715 20.3993 78.5907 20.3993C80.4086 20.3993 81.8755 19.2694 82.163 18.2366H86.1495C84.8736 22.1577 82.163 23.8196 78.4315 23.8196C73.2326 23.8196 70.0113 20.238 70.0113 15.0713C70.0113 10.0445 73.4243 6.26677 78.4315 6.26677ZM61.3752 6.31585C64.8966 6.31585 67.4286 7.965 67.4286 12.2933V23.4587H62.8771V14.0034C62.8771 11.777 62.6853 9.93751 60.097 9.93751C57.541 9.93751 57.0616 12.0676 57.0616 14.1649V23.4587H52.5102V13.9838C52.5141 12.0759 52.5808 9.93751 49.7619 9.93751C48.8669 9.93751 46.6945 10.5186 46.6945 13.7775V23.4587H42.1429V6.76969H46.4378L46.4344 9.13667C47.5987 7.37149 49.4106 6.31585 51.5513 6.31585C53.6321 6.31585 55.491 7.09197 56.3886 9.09661C57.3491 7.64181 59.0746 6.31585 61.3752 6.31585ZM98.8854 6.31585C99.2091 6.31585 99.597 6.38009 99.8875 6.47591V10.7122C99.4677 10.6156 98.7891 10.551 98.2395 10.551C94.8792 10.551 93.7159 12.9714 93.7159 15.948V23.4587H89.1277V6.7742H93.4897L93.4881 9.96006C94.3509 7.79194 96.656 6.31585 98.8854 6.31585ZM5.00585 0.360966L14.6541 15.953L14.6514 0.360966H19.3678V23.4587H14.3296L4.71713 7.87946L4.71659 23.4587H0V0.360966H5.00585ZM109.342 9.80434C106.256 9.80434 105.323 12.5026 105.323 15.2009C105.323 17.8665 106.256 20.565 109.342 20.565C112.46 20.565 113.393 17.8665 113.393 15.2009C113.393 12.5026 112.46 9.80434 109.342 9.80434ZM78.3036 9.68704C75.4336 9.68704 74.6043 11.9625 74.5401 13.2627H81.9076C81.493 10.9221 80.5042 9.68686 78.3038 9.68686L78.3036 9.68704ZM83.9656 0.083252L79.0544 4.65408H75.8966L78.9585 0.0834324H83.9654L83.9656 0.083252Z" fill="black"/>
</g>
<defs>
<clipPath id="clip0_190_2370">
<rect width="118" height="24" fill="white"/>
</clipPath>
</defs>
</svg>
