<svg width="18" height="16" viewBox="0 0 18 16" fill="none" xmlns="http://www.w3.org/2000/svg">
<path d="M0.219373 7.46945L6.96937 0.719445C7.1101 0.578714 7.30098 0.499652 7.5 0.499652C7.69902 0.499652 7.88989 0.578714 8.03062 0.719445C8.17135 0.860175 8.25042 1.05105 8.25042 1.25007C8.25042 1.44909 8.17135 1.63996 8.03062 1.7807L2.56031 7.25007L17.25 7.25007C17.4489 7.25007 17.6397 7.32909 17.7803 7.46974C17.921 7.61039 18 7.80116 18 8.00007C18 8.19898 17.921 8.38975 17.7803 8.5304C17.6397 8.67105 17.4489 8.75007 17.25 8.75007L2.56031 8.75007L8.03062 14.2194C8.17135 14.3602 8.25042 14.551 8.25042 14.7501C8.25042 14.9491 8.17135 15.14 8.03062 15.2807C7.88989 15.4214 7.69902 15.5005 7.5 15.5005C7.30098 15.5005 7.1101 15.4214 6.96937 15.2807L0.219373 8.5307C0.14964 8.46104 0.0943207 8.37832 0.0565775 8.28728C0.0188342 8.19623 -0.000591517 8.09863 -0.000591517 8.00007C-0.000591517 7.90151 0.0188342 7.80391 0.0565775 7.71287C0.0943207 7.62182 0.14964 7.5391 0.219373 7.46945Z" fill="#111111"/>
</svg>
